<svg xmlns="http://www.w3.org/2000/svg" viewBox="0 0 48 48">

  <rect x="5" y="6" width="38" height="2" fill="#6e6e6e"/>
  <rect x="5" y="12" width="38" height="2" fill="#6e6e6e"/>
  <rect x="5" y="18" width="38" height="2" fill="#6e6e6e"/>
  <rect x="5" y="24" width="38" height="2" fill="#6e6e6e"/>
  <rect x="5" y="30" width="38" height="2" fill="#6e6e6e"/>
  <rect x="5" y="36" width="38" height="2" fill="#6e6e6e"/>
  
  <circle cx="10" cy="6" r="2" fill="#F75103"/>
  <circle cx="16" cy="6" r="2" fill="#F75103"/>
  <circle cx="22" cy="6" r="2" fill="#F75103"/>
  <circle cx="28" cy="6" r="2" fill="#F75103"/>
  <circle cx="34" cy="6" r="2" fill="#F75103"/>
  
  <circle cx="10" cy="12" r="2" fill="#F75103"/>
  <circle cx="16" cy="12" r="2" fill="#F75103"/>
  <circle cx="22" cy="12" r="2" fill="#F75103"/>
  <circle cx="28" cy="12" r="2" fill="#F75103"/>
  
  <circle cx="10" cy="18" r="2" fill="#F75103"/>
  <circle cx="16" cy="18" r="2" fill="#F75103"/>
  <circle cx="22" cy="18" r="2" fill="#F75103"/>
  
  <circle cx="10" cy="24" r="2" fill="#F75103"/>
  <circle cx="16" cy="24" r="2" fill="#F75103"/>
  
  <circle cx="10" cy="30" r="2" fill="#F75103"/>
  
  <circle cx="10" cy="36" r="2" fill="#F75103"/>
</svg>
