<svg xmlns="http://www.w3.org/2000/svg" viewBox="0 0 48 48" width="23" height="23">
  <!-- Barras horizontais do ábaco -->
  <rect x="5" y="6" width="38" height="2" fill="#6e6e6e"/>
  <rect x="5" y="12" width="38" height="2" fill="#6e6e6e"/>
  <rect x="5" y="18" width="38" height="2" fill="#6e6e6e"/>
  <rect x="5" y="24" width="38" height="2" fill="#6e6e6e"/>
  <rect x="5" y="30" width="38" height="2" fill="#6e6e6e"/>
  <rect x="5" y="36" width="38" height="2" fill="#6e6e6e"/>
  
  <!-- Contas em cada barra -->
  <!-- Barra superior (barras com 5 contas, por exemplo) -->
  <circle cx="10" cy="6" r="2" fill="#0077b6"/>
  <circle cx="16" cy="6" r="2" fill="#0077b6"/>
  <circle cx="22" cy="6" r="2" fill="#0077b6"/>
  <circle cx="28" cy="6" r="2" fill="#0077b6"/>
  <circle cx="34" cy="6" r="2" fill="#0077b6"/>
  
  <!-- Barra do meio (4 contas) -->
  <circle cx="10" cy="12" r="2" fill="#0077b6"/>
  <circle cx="16" cy="12" r="2" fill="#0077b6"/>
  <circle cx="22" cy="12" r="2" fill="#0077b6"/>
  <circle cx="28" cy="12" r="2" fill="#0077b6"/>
  
  <!-- Barra inferior (3 contas) -->
  <circle cx="10" cy="18" r="2" fill="#0077b6"/>
  <circle cx="16" cy="18" r="2" fill="#0077b6"/>
  <circle cx="22" cy="18" r="2" fill="#0077b6"/>
  
  <!-- Outras barras com diferentes números de contas -->
  <circle cx="10" cy="24" r="2" fill="#0077b6"/>
  <circle cx="16" cy="24" r="2" fill="#0077b6"/>
  
  <circle cx="10" cy="30" r="2" fill="#0077b6"/>
  
  <circle cx="10" cy="36" r="2" fill="#0077b6"/>
</svg>
